HIERARCHY
ROOT hip
{
  OFFSET 0 0 0
  CHANNELS 6 Xposition Yposition Zposition Zrotation Yrotation Xrotation
  JOINT abdomen
  {
    OFFSET 0 20.6881 -0.73152
    CHANNELS 3 Zrotation Xrotation Yrotation
    JOINT chest
    {
      OFFSET 0 11.7043 -0.48768
      CHANNELS 3 Zrotation Xrotation Yrotation
      JOINT neck
      {
        OFFSET 0 22.1894 -2.19456
        CHANNELS 3 Zrotation Xrotation Yrotation
        JOINT head
        {
          OFFSET -0.24384 7.07133 1.2192
          CHANNELS 3 Zrotation Xrotation Yrotation
          JOINT leftEye
          {
            OFFSET 4.14528 8.04674 8.04672
            CHANNELS 3 Zrotation Xrotation Yrotation
            End Site
            {
              OFFSET 1 0 0
            }
          }
          JOINT rightEye
          {
            OFFSET -3.6576 8.04674 8.04672
            CHANNELS 3 Zrotation Xrotation Yrotation
            End Site
            {
              OFFSET 1 0 0
            }
          }
        }
      }
      JOINT rCollar
      {
        OFFSET -2.68224 19.2634 -4.8768
        CHANNELS 3 Zrotation Xrotation Yrotation
        JOINT rShldr
        {
          OFFSET -8.77824 -1.95073 1.46304
          CHANNELS 3 Zrotation Xrotation Yrotation
          JOINT rForeArm
          {
            OFFSET -28.1742 -1.7115 0.48768
            CHANNELS 3 Zrotation Xrotation Yrotation
            JOINT rHand
            {
              OFFSET -22.5879 0.773209 7.07136
              CHANNELS 3 Zrotation Xrotation Yrotation
              JOINT rThumb1
              {
                OFFSET -1.2192 -0.487915 3.41376
                CHANNELS 3 Zrotation Xrotation Yrotation
                JOINT rThumb2
                {
                  OFFSET -3.37035 -0.52449 3.41376
                  CHANNELS 3 Zrotation Xrotation Yrotation
                  End Site
                  {
                    OFFSET -1.78271 -1.18214 1.43049
                  }
                }
              }
              JOINT rIndex1
              {
                OFFSET -7.75947 0.938293 5.60832
                CHANNELS 3 Zrotation Xrotation Yrotation
                JOINT rIndex2
                {
                  OFFSET -2.54057 -0.884171 1.56538
                  CHANNELS 3 Zrotation Xrotation Yrotation
                  End Site
                  {
                    OFFSET -1.62519 -0.234802 1.16502
                  }
                }
              }
              JOINT rMid1
              {
                OFFSET -8.24714 1.18213 3.41376
                CHANNELS 3 Zrotation Xrotation Yrotation
                JOINT rMid2
                {
                  OFFSET -3.10165 -0.590103 1.0647
                  CHANNELS 3 Zrotation Xrotation Yrotation
                  End Site
                  {
                    OFFSET -2.48547 -0.328903 0.83742
                  }
                }
              }
              JOINT rRing1
              {
                OFFSET -8.82822 0.546677 1.51678
                CHANNELS 3 Zrotation Xrotation Yrotation
                JOINT rRing2
                {
                  OFFSET -2.60934 -0.819778 -0.0198488
                  CHANNELS 3 Zrotation Xrotation Yrotation
                  End Site
                  {
                    OFFSET -2.33842 -0.294052 0.168128
                  }
                }
              }
              JOINT rPinky1
              {
                OFFSET -8.27202 -0.0477905 -0.4584
                CHANNELS 3 Zrotation Xrotation Yrotation
                JOINT rPinky2
                {
                  OFFSET -1.82734 -0.647385 -0.700984
                  CHANNELS 3 Zrotation Xrotation Yrotation
                  End Site
                  {
                    OFFSET -1.69225 -0.51767 -0.607171
                  }
                }
              }
            }
          }
        }
      }
      JOINT lCollar
      {
        OFFSET 2.68224 19.2634 -4.8768
        CHANNELS 3 Zrotation Xrotation Yrotation
        JOINT lShldr
        {
          OFFSET 8.77824 -1.95073 1.46304
          CHANNELS 3 Zrotation Xrotation Yrotation
          JOINT lForeArm
          {
            OFFSET 28.1742 -1.7115 0.48768
            CHANNELS 3 Zrotation Xrotation Yrotation
            JOINT lHand
            {
              OFFSET 22.5879 0.773209 7.07136
              CHANNELS 3 Zrotation Xrotation Yrotation
              JOINT lThumb1
              {
                OFFSET 1.2192 -0.487915 3.41376
                CHANNELS 3 Zrotation Xrotation Yrotation
                JOINT lThumb2
                {
                  OFFSET 3.37035 -0.52449 3.41376
                  CHANNELS 3 Zrotation Xrotation Yrotation
                  End Site
                  {
                    OFFSET 1.78271 -1.18214 1.43049
                  }
                }
              }
              JOINT lIndex1
              {
                OFFSET 7.75947 0.938293 5.60832
                CHANNELS 3 Zrotation Xrotation Yrotation
                JOINT lIndex2
                {
                  OFFSET 2.54057 -0.884171 1.56538
                  CHANNELS 3 Zrotation Xrotation Yrotation
                  End Site
                  {
                    OFFSET 1.62519 -0.234802 1.16502
                  }
                }
              }
              JOINT lMid1
              {
                OFFSET 8.24714 1.18213 3.41376
                CHANNELS 3 Zrotation Xrotation Yrotation
                JOINT lMid2
                {
                  OFFSET 3.10165 -0.590103 1.0647
                  CHANNELS 3 Zrotation Xrotation Yrotation
                  End Site
                  {
                    OFFSET 2.48547 -0.328903 0.83742
                  }
                }
              }
              JOINT lRing1
              {
                OFFSET 8.82822 0.546677 1.51678
                CHANNELS 3 Zrotation Xrotation Yrotation
                JOINT lRing2
                {
                  OFFSET 2.60934 -0.819778 -0.0198488
                  CHANNELS 3 Zrotation Xrotation Yrotation
                  End Site
                  {
                    OFFSET 2.33842 -0.294052 0.168128
                  }
                }
              }
              JOINT lPinky1
              {
                OFFSET 8.27202 -0.0477905 -0.4584
                CHANNELS 3 Zrotation Xrotation Yrotation
                JOINT lPinky2
                {
                  OFFSET 1.82734 -0.647385 -0.700984
                  CHANNELS 3 Zrotation Xrotation Yrotation
                  End Site
                  {
                    OFFSET 1.69225 -0.51767 -0.607171
                  }
                }
              }
            }
          }
        }
      }
    }
  }
  JOINT rButtock
  {
    OFFSET -8.77824 4.35084 1.2192
    CHANNELS 3 Zrotation Xrotation Yrotation
    JOINT rThigh
    {
      OFFSET 0 -1.70687 -2.19456
      CHANNELS 3 Zrotation Xrotation Yrotation
      JOINT rShin
      {
        OFFSET 0 -36.8199 0.73152
        CHANNELS 3 Zrotation Xrotation Yrotation
        JOINT rFoot
        {
          OFFSET 0.73152 -45.1104 -5.12064
          CHANNELS 3 Zrotation Xrotation Yrotation
          End Site
          {
            OFFSET -1.1221 -3.69964 12.103
          }
        }
      }
    }
  }
  JOINT lButtock
  {
    OFFSET 8.77824 4.35084 1.2192
    CHANNELS 3 Zrotation Xrotation Yrotation
    JOINT lThigh
    {
      OFFSET 0 -1.70687 -2.19456
      CHANNELS 3 Zrotation Xrotation Yrotation
      JOINT lShin
      {
        OFFSET 0 -36.8199 0.73152
        CHANNELS 3 Zrotation Xrotation Yrotation
        JOINT lFoot
        {
          OFFSET -0.73152 -45.1104 -5.12064
          CHANNELS 3 Zrotation Xrotation Yrotation
          End Site
          {
            OFFSET 1.1221 -3.69964 12.103
          }
        }
      }
    }
  }
}
MOTION
Frames:	4
Frame Time:	0.03333
1.7630945034325123 69.1489028930664 37.86416957899928 -15.930047035217285 -11.699150651693344 53.1306391954422 -5.356427393853664 19.06147912144661 -4.936704598367214 -10.316279456019402 -10.246585607528687 -9.11898359656334 -4.9931808561086655 21.857592165470123 -20.20069107413292 11.18301585316658 -23.472413420677185 -4.05445396900177 -1.3242853805422783 -4.036571681499481 -9.506925567984581 2.779560126364231 -7.459965571761131 -3.0809294432401657 -10.99044531583786 -3.387249782681465 2.7789150550961494 40.629528164863586 17.964860647916794 37.04587161540985 -27.35269546508789 -28.683183789253235 64.90699589252472 -5.330282226204872 -30.729360580444336 -4.244870692491531 2.6041054353117943 -10.75407899916172 14.2013418674469 14.906340390443802 20.775186717510223 -0.8327219635248184 -11.890561133623123 -5.415268689393997 10.920367240905762 19.68666449189186 21.53821349143982 -3.1957796216011047 7.3518383502960205 5.06829209625721 -3.8993994891643524 -2.3681562021374702 0.2716507762670517 -9.831472858786583 7.724588960409164 -11.643571257591248 -7.921249866485596 21.010967642068863 6.523975878953934 -18.86274218559265 -5.249611772596836 8.228621631860733 4.922651499509811 7.535712495446205 10.141164064407349 3.8162758201360703 -1.6601784154772758 -14.898462742567062 6.272349804639816 -56.5189665555954 35.53755283355713 -38.81977200508118 27.284575402736664 -26.458999514579773 -69.09278690814972 11.934089362621307 -0.874280110001564 9.712196364998817 -0.16922961920499802 -14.567735642194748 -2.1181129664182663 -12.827739715576172 12.665763795375824 15.017602443695068 -8.876290619373322 -0.12342788279056549 15.505055040121078 -7.466365993022919 0.7113617286086082 -2.43867265060544 5.349008738994598 4.155169241130352 -3.239704817533493 1.9970417395234108 1.277034915983677 4.04324971139431 -4.952433407306671 2.0422419905662537 9.939577281475067 -11.553969383239746 -19.77091133594513 -18.973801732063293 -23.060632646083832 -10.5571498721838 3.1442641094326973 -17.16589093208313 11.98320597410202 1.4226450026035309 -1.285795345902443 -5.56950107216835 -7.416974455118179 -23.565341234207153 -38.457738161087036 -24.198213815689087 -2.089606113731861 60.62178075313568 6.274158284068108 8.329848870635033 -3.3730220049619675 -2.028883919119835 -9.579696580767632 -6.8203821033239365 16.379172205924988 34.42797660827637 -34.72837060689926 26.171573996543884 10.152242258191109 58.41682255268097 -15.734056681394577 4.609929397702217 -3.2096298784017563 16.35990858078003
1.8079596981406212 68.87039184570312 37.69468266889453 -16.59261703491211 -11.764510720968246 53.06565999984741 -5.355574451386929 18.871278315782547 -5.31233187764883 -10.176547095179558 -10.204252302646637 -9.262717813253403 -4.752677902579308 21.627018749713898 -19.916924089193344 11.12633541226387 -23.306073546409607 -3.6227577924728394 -1.202629767358303 -4.189226925373077 -9.655450209975243 2.64375451952219 -7.583636865019798 -3.0657588690519333 -11.069457828998566 -3.244357779622078 3.0661259964108467 41.13227069377899 18.25806900858879 37.1574005484581 -27.266534864902496 -28.549770712852478 65.18260896205902 -5.347912386059761 -30.605560541152954 -4.616560488939285 2.589052878320217 -11.038418635725975 14.350472688674927 14.884901493787766 21.000814139842987 -1.0231266170740128 -11.87590554356575 -5.3225018084049225 10.895090103149414 19.69865933060646 21.552048325538635 -2.8719618916511536 7.520420551300049 5.285368636250496 -4.19583722949028 -2.1677174046635628 0.2168264240026474 -9.757331237196922 7.907515615224838 -11.73002690076828 -7.957695722579956 20.850893408060074 6.525939255952835 -19.2128723859787 -5.589919723570347 8.291487246751785 5.095090717077255 7.746452316641808 10.399943590164185 3.7060531228780746 -1.5686104819178581 -14.957739561796188 6.251702159643173 -56.668741106987 35.41417121887207 -39.10608172416687 27.198573052883148 -26.611794233322144 -68.8926512002945 11.561214029788971 -1.0988936573266983 10.076998248696327 0.0296025350689888 -14.543016403913498 -2.2482939809560776 -12.822890281677246 12.831289619207382 14.92444932460785 -8.729584515094757 -0.02988852560520172 15.339069217443466 -7.663696110248566 0.5427044257521629 -2.2643988020718098 5.608185231685638 4.101511649787426 -2.9305319488048553 2.1074843779206276 1.5005594864487648 3.8706468790769577 -5.368020236492157 2.321808636188507 10.042407810688019 -11.706340312957764 -19.890540540218353 -18.95282953977585 -23.183040618896484 -10.74367068707943 3.018548972904682 -17.193523049354553 11.88207596540451 1.2836100161075592 -1.471012607216835 -5.398794561624527 -7.686305791139603 -23.7699294090271 -38.48456025123596 -24.286190271377563 -1.6209276393055916 60.758761167526245 6.163792088627815 8.334762677550316 -3.1204115599393845 -2.234298214316368 -9.372705146670341 -6.753010377287865 16.528109908103943 35.30261814594269 -34.99962776899338 26.352328062057495 9.824586287140846 58.92041265964508 -15.604811757802963 4.50124628841877 -2.820543274283409 16.416943073272705
1.8521733693778515 68.65567016601562 37.507979568094015 -17.40294188261032 -11.736562103033066 52.58482038974762 -5.364441834390163 18.736288100481033 -5.620657168328762 -10.030559822916985 -10.159958302974701 -9.413932710886002 -4.6224164217710495 21.429264843463898 -19.81841191649437 11.06290653347969 -23.16887855529785 -3.2992082834243774 -1.1561712250113487 -4.292384684085846 -9.823533520102501 2.5124121084809303 -7.636057958006859 -3.0276715010404587 -11.060906946659088 -3.132541850209236 3.2942961528897285 41.55828595161438 18.379041999578476 37.049261927604675 -27.280106842517853 -28.51478397846222 65.39853751659393 -5.368514433503151 -30.569350719451904 -4.907515794038773 2.5213753804564476 -11.200799569487572 14.40707802772522 14.84226107597351 21.137735545635223 -1.2486038357019424 -11.861539632081985 -5.201169401407242 10.877044200897217 19.73114088177681 21.540648937225342 -2.5880983471870422 7.627773284912109 5.472334697842598 -4.463983029127121 -1.9939183071255684 0.21793417632579803 -9.687693044543266 8.016021698713303 -11.82414561510086 -7.967512607574463 20.685430616140366 6.531743556261063 -19.43878412246704 -5.837551653385162 8.247952312231064 5.198951214551926 7.965761125087738 10.59930682182312 3.6241652816534042 -1.4651764556765556 -15.011008232831955 6.185499876737595 -56.854886412620544 35.312204360961914 -39.358166456222534 27.15531975030899 -26.70953929424286 -68.8060587644577 11.345687806606293 -1.2968621402978897 10.40778435766697 0.14847803860902786 -14.4875268638134 -2.3763828724622726 -12.812772989273071 12.866599559783936 14.862576127052307 -8.581489026546478 -0.03671206533908844 15.170229524374008 -7.878246009349823 0.4805630072951317 -2.133651841431856 5.76695591211319 3.989253155887127 -2.699228972196579 2.151939310133457 1.5875810757279396 3.738709017634392 -5.64809650182724 2.4976810812950134 10.03166288137436 -11.838444471359253 -20.03492921590805 -18.898777663707733 -23.1931471824646 -10.876810178160667 2.909649945795536 -17.223011255264282 11.83165580034256 1.1204512417316437 -1.6293219476938248 -5.246091037988663 -7.921575754880905 -24.036659002304077 -38.5604989528656 -24.38666045665741 -1.4729126170277596 60.93519687652588 6.273081377148628 8.306969627737999 -2.9282688349485397 -2.419821247458458 -9.206483289599419 -6.79932676255703 16.59232199192047 36.03162109851837 -35.100317895412445 26.646217703819275 9.576789066195488 59.39235806465149 -15.531482845544815 4.440188482403755 -2.629779204726219 16.560044288635254
1.8962384909391403 68.5777816772461 37.321303110569715 -18.02020937204361 -11.717829555273056 51.971222162246704 -5.407920442521572 18.7156243622303 -5.751777291297913 -9.898402020335197 -10.153950154781342 -9.504653066396713 -4.654066488146782 21.294800341129303 -19.919563382864 10.989945083856583 -23.149250149726868 -3.1983572244644165 -1.1903304979205132 -4.335246384143829 -9.920886978507042 2.41828802973032 -7.6462047547101974 -3.0061279982328415 -10.977777242660522 -3.1351355463266373 3.381307013332844 41.76759481430054 18.273867219686508 36.83049559593201 -27.377605140209198 -28.536332845687866 65.45616745948792 -5.3767890483140945 -30.6508469581604 -4.985804110765457 2.394667826592922 -11.204281076788902 14.334583282470703 14.81450155377388 21.18937075138092 -1.4446089416742325 -11.846015006303787 -5.097925812005997 10.873546600341797 19.806602150201797 21.508092284202576 -2.4547389149665833 7.662931680679321 5.558755472302437 -4.593292325735092 -1.9048072770237923 0.3064551204442978 -9.636014923453331 8.00610825419426 -11.890785098075867 -7.921775579452515 20.562475472688675 6.544103175401688 -19.44658935070038 -5.948436856269836 8.118841499090195 5.211310833692551 8.148485943675041 10.720092058181763 3.5852035135030746 -1.3887307327240705 -15.016297549009323 6.107860654592514 -57.002654671669006 35.202040672302246 -39.46290135383606 27.11940497159958 -26.73022449016571 -68.8615483045578 11.339470446109772 -1.4351782947778702 10.621620789170265 0.18104005604982376 -14.4186370074749 -2.4850498884916306 -12.82129168510437 12.753826081752777 14.865601658821106 -8.506333529949188 -0.08392967283725739 15.05508229136467 -8.048029839992523 0.5045795068144798 -2.0900713093578815 5.756414830684662 3.8265718147158623 -2.6209621131420135 2.1503085270524025 1.49693313986063 3.70055191218853 -5.730386674404144 2.50538170337677 9.969575107097626 -11.89868688583374 -20.14838397502899 -18.8436421751976 -23.089104294776917 -10.888290032744408 2.803987003862858 -17.264065146446228 11.816630065441132 0.9749789535999298 -1.6779933124780655 -5.160464197397232 -8.073064237833023 -24.22985315322876 -38.66482079029083 -24.47378933429718 -1.6175802424550056 61.07770800590515 6.528202369809151 8.249951228499413 -2.8579842299222946 -2.535521015524864 -9.121242687106133 -6.894341334700584 16.549513936042786 36.32448613643646 -35.05052000284195 26.94750487804413 9.464447423815727 59.68223512172699 -15.527710318565369 4.488677456974983 -2.698121890425682 16.754000186920166
